999
DXF from OpenSCAD
  0
SECTION
  2
HEADER
  9
$ACADVER
  1
AC1006
  9
$INSBASE
 10
0.0
 20
0.0
 30
0.0
  9
$EXTMIN
 10
0
 20
0
  9
$EXTMAX
 10
156.15
 20
81.6
  9
$LINMIN
 10
0
 20
0
  9
$LINMAX
 10
156.15
 20
81.6
  0
ENDSEC
  0
SECTION
  2
TABLES
  0
TABLE
  2
LTYPE
 70
1
  0
LTYPE
  2
CONTINUOUS
 70
64
  3
Solid line
 72
65
 73
0
 40
0.000000
  0
ENDTAB
  0
TABLE
  2
LAYER
 70
6
  0
LAYER
  2
0
 70
64
 62
7
  6
CONTINUOUS
  0
ENDTAB
  0
TABLE
  2
STYLE
 70
0
  0
ENDTAB
  0
ENDSEC
  0
SECTION
  2
BLOCKS
  0
ENDSEC
  0
SECTION
  2
ENTITIES
  0
LWPOLYLINE
100
AcDbEntity
  8
0
100
AcDbPolyline
 90
14
 70
1
 10
60.25
 20
0
 10
100.94
 20
3.815
 10
113.66
 20
10.975
 10
138.7
 20
10.975
 10
138.7
 20
4.3
 10
156.15
 20
4.3
 10
156.15
 20
77.3
 10
138.7
 20
77.3
 10
138.7
 20
70.625
 10
113.66
 20
70.625
 10
100.94
 20
77.785
 10
60.25
 20
81.6
 10
0
 20
81.6
 10
0
 20
0
  0
ENDSEC
  0
EOF
